<svg width="305" height="67" viewBox="0 0 305 67" fill="none" xmlns="http://www.w3.org/2000/svg">
<path d="M15.2013 51.4548C13.8925 51.4548 12.8938 51.1022 12.2049 50.397C11.5161 49.6918 11.1717 48.6844 11.1717 47.3748V32.7674L12.8249 37.2503L0.632849 20.3762C0.150678 19.6711 -0.0559663 18.9155 0.0129153 18.1096C0.0817968 17.2701 0.426205 16.5481 1.04614 15.9437C1.66607 15.3392 2.54431 15.037 3.68086 15.037C4.50744 15.037 5.24791 15.2385 5.90229 15.6414C6.5911 16.0444 7.24548 16.6824 7.86541 17.5555L16.1312 29.1911H14.478L22.7438 17.5555C23.3982 16.6488 24.0354 16.0108 24.6553 15.6414C25.3097 15.2385 26.0674 15.037 26.9284 15.037C28.0305 15.037 28.8915 15.3224 29.5114 15.8933C30.1314 16.4306 30.4586 17.119 30.493 17.9585C30.5274 18.7644 30.2347 19.6039 29.6148 20.477L17.5777 37.2503L19.1792 32.7674V47.3748C19.1792 50.0948 17.8532 51.4548 15.2013 51.4548Z" fill="#FF7020"/>
<path d="M42.2665 51.5555C39.5457 51.5555 37.1693 51.035 35.1373 49.994C33.1397 48.953 31.5899 47.4587 30.4877 45.5111C29.3856 43.5634 28.8346 41.2632 28.8346 38.6103C28.8346 36.6291 29.1446 34.8493 29.7645 33.2711C30.3844 31.6928 31.2799 30.3496 32.4509 29.2414C33.6563 28.0997 35.0856 27.2434 36.7388 26.6725C38.3919 26.0681 40.2345 25.7659 42.2665 25.7659C44.9873 25.7659 47.3465 26.2864 49.3441 27.3274C51.3761 28.3683 52.9431 29.8459 54.0452 31.7599C55.1818 33.674 55.7501 35.9575 55.7501 38.6103C55.7501 40.6251 55.4229 42.4217 54.7685 44C54.1486 45.5782 53.2531 46.9382 52.0821 48.08C50.9111 49.2217 49.4818 50.0948 47.7942 50.6992C46.1411 51.2701 44.2985 51.5555 42.2665 51.5555ZM42.2665 45.8637C43.403 45.8637 44.3846 45.595 45.2112 45.0577C46.0378 44.5204 46.6921 43.7313 47.1743 42.6903C47.6565 41.6158 47.8976 40.2558 47.8976 38.6103C47.8976 36.159 47.3809 34.3624 46.3477 33.2207C45.3145 32.0454 43.9541 31.4577 42.2665 31.4577C41.1644 31.4577 40.1828 31.7096 39.3218 32.2133C38.4952 32.717 37.8409 33.5061 37.3587 34.5807C36.911 35.6217 36.6871 36.9649 36.6871 38.6103C36.6871 41.0617 37.2037 42.8918 38.2369 44.1007C39.2701 45.276 40.6133 45.8637 42.2665 45.8637Z" fill="#FF7020"/>
<path d="M69.8467 51.5555C67.7114 51.5555 65.9377 51.1693 64.5256 50.397C63.1135 49.6246 62.0631 48.4661 61.3743 46.9214C60.7199 45.3432 60.3927 43.3955 60.3927 41.0785V29.6948C60.3927 28.4187 60.7199 27.4617 61.3743 26.8237C62.0631 26.1856 63.0274 25.8666 64.2673 25.8666C65.5072 25.8666 66.4715 26.1856 67.1603 26.8237C67.8491 27.4617 68.1935 28.4187 68.1935 29.6948V41.28C68.1935 42.7575 68.5035 43.8656 69.1234 44.6044C69.7434 45.3096 70.7249 45.6622 72.0681 45.6622C73.5491 45.6622 74.7545 45.1585 75.6844 44.1511C76.6487 43.1101 77.1309 41.7501 77.1309 40.0711V29.6948C77.1309 28.4187 77.4581 27.4617 78.1125 26.8237C78.8013 26.1856 79.7656 25.8666 81.0055 25.8666C82.2798 25.8666 83.2441 26.1856 83.8985 26.8237C84.5873 27.4617 84.9317 28.4187 84.9317 29.6948V47.5762C84.9317 50.1619 83.6747 51.4548 81.1605 51.4548C79.9206 51.4548 78.9735 51.119 78.3191 50.4474C77.6647 49.7758 77.3376 48.8187 77.3376 47.5762V44.2014L78.1125 46.1659C77.3548 47.8785 76.2699 49.2049 74.8578 50.1451C73.4457 51.0854 71.7754 51.5555 69.8467 51.5555Z" fill="#FF7020"/>
<path d="M94.9976 51.4548C93.6889 51.4548 92.6901 51.119 92.0013 50.4474C91.3124 49.7758 90.968 48.8187 90.968 47.5762V29.6948C90.968 28.4523 91.2952 27.5121 91.9496 26.874C92.6384 26.2024 93.5855 25.8666 94.791 25.8666C96.0308 25.8666 96.9779 26.2024 97.6323 26.874C98.2867 27.5121 98.6139 28.4523 98.6139 29.6948V32.314H98.0973C98.5106 30.2992 99.4232 28.7377 100.835 27.6296C102.247 26.5214 104.073 25.9002 106.311 25.7659C107.172 25.6987 107.827 25.917 108.275 26.4207C108.757 26.8908 109.015 27.68 109.049 28.7881C109.118 29.8291 108.894 30.6518 108.378 31.2562C107.896 31.8607 107.069 32.2301 105.898 32.3644L104.71 32.4651C102.747 32.633 101.283 33.1871 100.319 34.1274C99.3888 35.0676 98.9239 36.4276 98.9239 38.2074V47.5762C98.9239 48.8187 98.5794 49.7758 97.8906 50.4474C97.2363 51.119 96.2719 51.4548 94.9976 51.4548Z" fill="#FF7020"/>
<path d="M116.649 51.4548C115.478 51.4548 114.583 51.1358 113.963 50.4977C113.343 49.8597 113.033 48.9698 113.033 47.8281V18.6637C113.033 17.5219 113.36 16.632 114.015 15.994C114.703 15.356 115.633 15.037 116.804 15.037C117.837 15.037 118.647 15.2385 119.232 15.6414C119.852 16.0108 120.421 16.6656 120.937 17.6059L132.871 38.8622H131.114L143.048 17.6059C143.565 16.6656 144.116 16.0108 144.701 15.6414C145.321 15.2385 146.131 15.037 147.129 15.037C148.3 15.037 149.196 15.356 149.816 15.994C150.47 16.632 150.797 17.5219 150.797 18.6637V47.8281C150.797 48.9698 150.487 49.8597 149.867 50.4977C149.247 51.1358 148.352 51.4548 147.181 51.4548C146.01 51.4548 145.097 51.1358 144.443 50.4977C143.823 49.8597 143.513 48.9698 143.513 47.8281V27.4281H144.65L135.041 44.2014C134.627 44.8395 134.18 45.3264 133.697 45.6622C133.25 45.9644 132.647 46.1155 131.889 46.1155C131.132 46.1155 130.512 45.9476 130.03 45.6118C129.547 45.276 129.117 44.8059 128.738 44.2014L119.026 27.3777H120.266V47.8281C120.266 48.9698 119.956 49.8597 119.336 50.4977C118.75 51.1358 117.855 51.4548 116.649 51.4548Z" fill="#FF7020"/>
<path d="M170.686 51.5555C167.689 51.5555 165.106 51.035 162.936 49.994C160.801 48.9195 159.148 47.4251 157.977 45.5111C156.84 43.5634 156.272 41.28 156.272 38.6607C156.272 36.1086 156.823 33.8755 157.925 31.9614C159.027 30.0138 160.56 28.5027 162.523 27.4281C164.521 26.32 166.777 25.7659 169.291 25.7659C171.116 25.7659 172.769 26.0681 174.25 26.6725C175.731 27.2434 177.006 28.0829 178.073 29.1911C179.141 30.2656 179.95 31.5921 180.501 33.1703C181.052 34.715 181.328 36.4444 181.328 38.3585C181.328 38.9965 181.121 39.4834 180.708 39.8192C180.295 40.1214 179.692 40.2725 178.9 40.2725H162.678V36.3437H175.697L174.87 37.0488C174.87 35.6721 174.664 34.5303 174.25 33.6237C173.837 32.6834 173.234 31.9782 172.442 31.5081C171.684 31.038 170.737 30.8029 169.601 30.8029C168.326 30.8029 167.242 31.0883 166.346 31.6592C165.451 32.2301 164.762 33.0528 164.28 34.1274C163.797 35.2019 163.556 36.4948 163.556 38.0059V38.4088C163.556 40.9609 164.159 42.8414 165.365 44.0503C166.604 45.2592 168.43 45.8637 170.841 45.8637C171.667 45.8637 172.614 45.7629 173.682 45.5614C174.75 45.36 175.748 45.0409 176.678 44.6044C177.47 44.235 178.176 44.1175 178.796 44.2518C179.416 44.3525 179.899 44.6212 180.243 45.0577C180.587 45.4943 180.777 45.998 180.811 46.5688C180.88 47.1397 180.76 47.7106 180.45 48.2814C180.14 48.8187 179.623 49.272 178.9 49.6414C177.729 50.2795 176.403 50.7496 174.922 51.0518C173.475 51.3876 172.063 51.5555 170.686 51.5555Z" fill="#FF7020"/>
<path d="M194.441 51.5555C192.581 51.5555 190.911 51.2029 189.43 50.4977C187.949 49.7925 186.795 48.8355 185.968 47.6266C185.142 46.4177 184.729 45.0577 184.729 43.5466C184.729 41.7333 185.211 40.3061 186.175 39.2651C187.139 38.1906 188.706 37.435 190.876 36.9985C193.046 36.5283 195.922 36.2933 199.504 36.2933H202.242V40.2222H199.555C197.799 40.2222 196.37 40.3229 195.267 40.5244C194.2 40.6923 193.425 40.9945 192.943 41.4311C192.495 41.8676 192.271 42.472 192.271 43.2444C192.271 44.1846 192.598 44.957 193.253 45.5614C193.941 46.1659 194.923 46.4681 196.197 46.4681C197.196 46.4681 198.074 46.2498 198.832 45.8133C199.624 45.3432 200.244 44.7219 200.692 43.9496C201.14 43.1437 201.363 42.237 201.363 41.2296V35.437C201.363 33.9595 201.019 32.9185 200.33 32.314C199.641 31.676 198.47 31.357 196.817 31.357C195.887 31.357 194.871 31.4745 193.769 31.7096C192.702 31.9111 191.513 32.2637 190.205 32.7674C189.447 33.1032 188.775 33.1871 188.19 33.0192C187.604 32.8177 187.157 32.4819 186.847 32.0118C186.537 31.5081 186.382 30.9708 186.382 30.4C186.382 29.7955 186.554 29.2246 186.898 28.6874C187.243 28.1165 187.811 27.6967 188.603 27.4281C190.222 26.7901 191.737 26.3535 193.149 26.1185C194.596 25.8834 195.922 25.7659 197.127 25.7659C199.779 25.7659 201.949 26.1521 203.637 26.9244C205.359 27.6632 206.65 28.8217 207.511 30.4C208.372 31.9446 208.803 33.9427 208.803 36.394V47.5762C208.803 48.8187 208.493 49.7758 207.873 50.4474C207.253 51.119 206.357 51.4548 205.186 51.4548C204.015 51.4548 203.103 51.119 202.448 50.4474C201.828 49.7758 201.518 48.8187 201.518 47.5762V45.7125L201.88 46.0148C201.673 47.1565 201.226 48.1471 200.537 48.9866C199.883 49.7925 199.039 50.4306 198.005 50.9007C196.972 51.3372 195.784 51.5555 194.441 51.5555Z" fill="#FF7020"/>
<path d="M223.766 51.5555C220.701 51.5555 218.41 50.7328 216.895 49.0874C215.38 47.4083 214.622 44.9234 214.622 41.6325V18.9155C214.622 17.6395 214.949 16.6824 215.603 16.0444C216.292 15.3728 217.274 15.037 218.548 15.037C219.788 15.037 220.735 15.3728 221.389 16.0444C222.078 16.6824 222.423 17.6395 222.423 18.9155V41.3303C222.423 42.7071 222.715 43.7313 223.301 44.4029C223.921 45.0409 224.73 45.36 225.729 45.36C226.005 45.36 226.263 45.3432 226.504 45.3096C226.745 45.276 227.003 45.2592 227.279 45.2592C227.83 45.1921 228.209 45.36 228.415 45.7629C228.656 46.1323 228.777 46.8879 228.777 48.0296C228.777 49.037 228.57 49.8093 228.157 50.3466C227.744 50.8503 227.107 51.1861 226.246 51.354C225.901 51.3876 225.505 51.4212 225.057 51.4548C224.61 51.5219 224.179 51.5555 223.766 51.5555Z" fill="#FF7020"/>
<path d="M290.121 14.6222L295.697 14.446V34.1772H288.971L290.121 14.6222Z" fill="white"/>
<ellipse cx="272.952" cy="48.6232" rx="6.63755" ry="8.4562" fill="white"/>
<path d="M260.774 21.0524C260.774 25.7227 257.537 24.9282 253.871 24.9282C250.205 24.9282 247.765 23.695 247.765 22.0214C247.765 17.3511 250.471 16.7362 254.137 16.7362C257.803 16.7362 260.774 16.3822 260.774 21.0524Z" fill="white"/>
<path d="M244.467 5.87887C244.14 6.06096 243.709 6.45115 243.487 6.7503L243.095 7.30957V14.281V21.2654L243.434 22.1368C244.663 25.2714 247.303 27.3524 250.478 27.6775L251.327 27.7686L251.393 43.5063L251.458 59.244L251.746 59.7122C251.915 59.9723 252.294 60.3495 252.595 60.5576C253.078 60.8958 253.248 60.9348 254.137 60.9348C255.012 60.9348 255.195 60.8958 255.653 60.5836C255.927 60.3885 256.306 60.0114 256.489 59.7382L256.816 59.257L256.881 43.5193L256.946 27.7686L257.796 27.6775C261.05 27.3524 263.898 25.0242 264.892 21.9157C265.179 21.0183 265.179 20.8752 265.179 14.1639V7.32258L264.826 6.81533C264.251 6.00893 263.65 5.67077 262.644 5.61874C261.572 5.56672 260.801 5.91789 260.213 6.7503L259.821 7.30957L259.756 10.5742L259.691 13.8518H258.319H256.946L256.881 10.5872C256.816 7.3746 256.816 7.32258 256.489 6.85435C255.94 6.03495 255.274 5.67077 254.281 5.61874C253.209 5.56672 252.438 5.91789 251.85 6.7503L251.458 7.30957L251.393 10.5742L251.327 13.8518H249.955H248.583L248.518 10.5872L248.452 7.32258L248.1 6.81533C247.525 6.00893 246.924 5.67077 245.917 5.61874C245.199 5.57973 244.95 5.63175 244.467 5.87887ZM259.625 19.7697C259.625 20.5631 258.985 21.4345 258.057 21.9287C257.639 22.1498 257.273 22.1758 254.137 22.1758C250.844 22.1758 250.648 22.1628 250.151 21.8897C249.263 21.4215 248.648 20.5501 248.648 19.7697V19.3795H254.137H259.625V19.7697Z" fill="#FF7020"/>
<path d="M271.556 5.87888C271.23 6.06096 270.798 6.45115 270.576 6.7503L270.184 7.30957L270.119 21.8117L270.054 36.3138L268.956 36.6389C266.212 37.4193 264.16 39.0581 263.01 41.3602C262.004 43.4022 261.834 44.2476 261.834 47.2131C261.834 49.3852 261.873 49.9054 262.108 50.8549C263.389 55.8883 266.225 59.322 270.184 60.6357C270.955 60.8828 271.373 60.9348 272.863 60.9348C274.353 60.9348 274.771 60.8828 275.542 60.6357C279.501 59.322 282.337 55.8883 283.618 50.8549C283.853 49.9054 283.892 49.3852 283.892 47.2131C283.892 45.028 283.853 44.5338 283.605 43.6363C282.625 40.0336 280.286 37.6404 276.77 36.6389L275.673 36.3138L275.607 21.8247L275.542 7.32258L275.189 6.81533C274.614 6.00893 274.013 5.67077 273.007 5.61875C272.288 5.57973 272.04 5.63175 271.556 5.87888ZM275.437 42.0106C276.901 42.5048 277.855 43.6363 278.221 45.2752C278.469 46.4067 278.325 49.2421 277.959 50.3997C277.28 52.5327 275.986 54.3276 274.588 55.0299C273.712 55.4721 272.027 55.4851 271.164 55.0429C269.675 54.2756 268.472 52.6107 267.741 50.3346C267.479 49.4762 267.44 49.099 267.44 47.2131C267.44 45.1191 267.453 45.054 267.819 44.2476C268.472 42.843 269.805 41.9325 271.556 41.6984C271.556 41.6984 274.627 41.7504 275.437 42.0106Z" fill="#FF7020"/>
<path d="M296.751 5.82685C295.079 6.69827 292.491 9.06543 290.897 11.1595C286.925 16.427 284.612 23.8667 284.076 33.1662C283.88 36.5739 283.971 37.0811 284.873 37.9786C285.749 38.85 285.984 38.889 290.949 38.889H295.21V48.9429V59.0099L295.51 59.5561C295.667 59.8683 296.059 60.2975 296.373 60.5316C296.882 60.8958 297.013 60.9348 297.941 60.9348C298.829 60.9348 299.012 60.8958 299.47 60.5836C299.744 60.3885 300.123 60.0114 300.306 59.7382L300.633 59.257V33.2963V7.32258L300.28 6.81533C299.705 5.99593 299.104 5.67077 298.097 5.61874C297.444 5.59273 297.117 5.63175 296.751 5.82685ZM295.21 24.0618V33.2963H292.439H289.682L289.773 31.9566C290.009 28.3799 290.884 24.0618 292.021 20.8752C292.779 18.7682 294.817 14.8273 295.144 14.8273C295.183 14.8273 295.21 18.9763 295.21 24.0618Z" fill="#FF7020"/>
</svg>
